<?xml version="1.0"?>
<svg xmlns="http://www.w3.org/2000/svg" xmlns:xlink="http://www.w3.org/1999/xlink" width="990" height="365">
  <style><![CDATA[
svg {
  background-color: #FFF4F2;
}]]></style>
  <g id="78da36a4-1e88-4e7b-a610-a73b9dc2f772">
    <rect x="10" y="32" width="70.000000" height="70.000000" rx="3" fill="#383838"/>
    <rect x="17" y="38" width="56.000000" height="56.000000" fill="#fff" fill-opacity="0.1"/>
    <text x="45" y="66" font-family="Arial" font-size="16" fill="#e3e3e3" text-anchor="middle" dominant-baseline="middle">q</text>
  </g>
  <g id="8dbbaba2-329d-4f70-99fb-32d7df308ed5">
    <rect x="85" y="17" width="70.000000" height="70.000000" rx="3" fill="#383838"/>
    <rect x="92" y="23" width="56.000000" height="56.000000" fill="#fff" fill-opacity="0.1"/>
    <text x="120" y="51" font-family="Arial" font-size="16" fill="#e3e3e3" text-anchor="middle" dominant-baseline="middle">w</text>
  </g>
  <g id="628641e7-7ad3-4138-a0ff-d6eb93cf5b6c">
    <rect x="160" y="10" width="70.000000" height="70.000000" rx="3" fill="#383838"/>
    <rect x="167" y="16" width="56.000000" height="56.000000" fill="#fff" fill-opacity="0.1"/>
    <text x="195" y="44" font-family="Arial" font-size="16" fill="#e3e3e3" text-anchor="middle" dominant-baseline="middle">f</text>
  </g>
  <g id="ba782873-e76e-4986-bae5-b24eb664314f">
    <rect x="235" y="17" width="70.000000" height="70.000000" rx="3" fill="#383838"/>
    <rect x="242" y="23" width="56.000000" height="56.000000" fill="#fff" fill-opacity="0.1"/>
    <text x="270" y="51" font-family="Arial" font-size="16" fill="#e3e3e3" text-anchor="middle" dominant-baseline="middle">p</text>
  </g>
  <g id="e44367af-05f9-4927-a711-bd3a95496bd4">
    <rect x="310" y="25" width="70.000000" height="70.000000" rx="3" fill="#383838"/>
    <rect x="317" y="31" width="56.000000" height="56.000000" fill="#fff" fill-opacity="0.1"/>
    <text x="345" y="59" font-family="Arial" font-size="16" fill="#e3e3e3" text-anchor="middle" dominant-baseline="middle">g</text>
  </g>
  <g id="4e1ca81e-7440-4cdb-8525-c09d7227322c">
    <rect x="610" y="25" width="70.000000" height="70.000000" rx="3" fill="#383838"/>
    <rect x="617" y="31" width="56.000000" height="56.000000" fill="#fff" fill-opacity="0.1"/>
    <text x="645" y="59" font-family="Arial" font-size="16" fill="#e3e3e3" text-anchor="middle" dominant-baseline="middle">j</text>
  </g>
  <g id="b4446924-75a7-44a9-bfe1-599fd12f89e7">
    <rect x="685" y="17" width="70.000000" height="70.000000" rx="3" fill="#383838"/>
    <rect x="692" y="23" width="56.000000" height="56.000000" fill="#fff" fill-opacity="0.1"/>
    <text x="720" y="51" font-family="Arial" font-size="16" fill="#e3e3e3" text-anchor="middle" dominant-baseline="middle">l</text>
  </g>
  <g id="3420e57b-126b-4dc9-b9a4-3cf86e144a56">
    <rect x="760" y="10" width="70.000000" height="70.000000" rx="3" fill="#383838"/>
    <rect x="767" y="16" width="56.000000" height="56.000000" fill="#fff" fill-opacity="0.1"/>
    <text x="795" y="44" font-family="Arial" font-size="16" fill="#e3e3e3" text-anchor="middle" dominant-baseline="middle">u</text>
  </g>
  <g id="3af2121c-280d-40d9-af34-aa0e01b33f2f">
    <rect x="835" y="17" width="70.000000" height="70.000000" rx="3" fill="#383838"/>
    <rect x="842" y="23" width="56.000000" height="56.000000" fill="#fff" fill-opacity="0.1"/>
    <text x="870" y="51" font-family="Arial" font-size="16" fill="#e3e3e3" text-anchor="middle" dominant-baseline="middle">y</text>
  </g>
  <g id="b1eccdc4-2814-4aa7-98ad-7da780d55617">
    <rect x="910" y="32" width="70.000000" height="70.000000" rx="3" fill="#383838"/>
    <rect x="917" y="38" width="56.000000" height="56.000000" fill="#fff" fill-opacity="0.1"/>
    <text x="945" y="66" font-family="Arial" font-size="16" fill="#e3e3e3" text-anchor="middle" dominant-baseline="middle">;</text>
  </g>
  <g id="3af3e4e8-47a7-4987-af43-5947536edf5d">
    <rect x="10" y="107" width="70.000000" height="70.000000" rx="3" fill="#383838"/>
    <rect x="17" y="113" width="56.000000" height="56.000000" fill="#fff" fill-opacity="0.1"/>
    <text x="45" y="141" font-family="Arial" font-size="16" fill="#e3e3e3" text-anchor="middle" dominant-baseline="middle">a</text>
  </g>
  <g id="d7013288-0b9c-4c3a-a726-4be8eb481815">
    <rect x="85" y="92" width="70.000000" height="70.000000" rx="3" fill="#383838"/>
    <rect x="92" y="98" width="56.000000" height="56.000000" fill="#fff" fill-opacity="0.1"/>
    <text x="120" y="126" font-family="Arial" font-size="16" fill="#e3e3e3" text-anchor="middle" dominant-baseline="middle">r</text>
  </g>
  <g id="db6d66b0-f783-45e5-a775-0237bea45646">
    <rect x="160" y="85" width="70.000000" height="70.000000" rx="3" fill="#383838"/>
    <rect x="167" y="91" width="56.000000" height="56.000000" fill="#fff" fill-opacity="0.1"/>
    <text x="195" y="119" font-family="Arial" font-size="16" fill="#e3e3e3" text-anchor="middle" dominant-baseline="middle">s</text>
  </g>
  <g id="46095c27-41c6-4910-99b9-aa48b1c98901">
    <rect x="235" y="92" width="70.000000" height="70.000000" rx="3" fill="#383838"/>
    <rect x="242" y="98" width="56.000000" height="56.000000" fill="#fff" fill-opacity="0.1"/>
    <text x="270" y="126" font-family="Arial" font-size="16" fill="#e3e3e3" text-anchor="middle" dominant-baseline="middle">t</text>
  </g>
  <g id="7c60b092-c2d2-4ca9-8e93-f8a1dfb20329">
    <rect x="310" y="100" width="70.000000" height="70.000000" rx="3" fill="#383838"/>
    <rect x="317" y="106" width="56.000000" height="56.000000" fill="#fff" fill-opacity="0.1"/>
    <text x="345" y="134" font-family="Arial" font-size="16" fill="#e3e3e3" text-anchor="middle" dominant-baseline="middle">d</text>
  </g>
  <g id="cdbe1100-49a8-429f-8f29-393b7202a4fb">
    <rect x="610" y="100" width="70.000000" height="70.000000" rx="3" fill="#383838"/>
    <rect x="617" y="106" width="56.000000" height="56.000000" fill="#fff" fill-opacity="0.1"/>
    <text x="645" y="134" font-family="Arial" font-size="16" fill="#e3e3e3" text-anchor="middle" dominant-baseline="middle">h</text>
  </g>
  <g id="dcaab564-2459-458e-8266-387840008d0b">
    <rect x="685" y="92" width="70.000000" height="70.000000" rx="3" fill="#383838"/>
    <rect x="692" y="98" width="56.000000" height="56.000000" fill="#fff" fill-opacity="0.1"/>
    <text x="720" y="126" font-family="Arial" font-size="16" fill="#e3e3e3" text-anchor="middle" dominant-baseline="middle">n</text>
  </g>
  <g id="e32d8949-482b-49d5-befc-d470cd495aac">
    <rect x="760" y="85" width="70.000000" height="70.000000" rx="3" fill="#383838"/>
    <rect x="767" y="91" width="56.000000" height="56.000000" fill="#fff" fill-opacity="0.1"/>
    <text x="795" y="119" font-family="Arial" font-size="16" fill="#e3e3e3" text-anchor="middle" dominant-baseline="middle">e</text>
  </g>
  <g id="f74c1bc9-f9e1-429e-af6c-bf31384e804f">
    <rect x="835" y="92" width="70.000000" height="70.000000" rx="3" fill="#383838"/>
    <rect x="842" y="98" width="56.000000" height="56.000000" fill="#fff" fill-opacity="0.1"/>
    <text x="870" y="126" font-family="Arial" font-size="16" fill="#e3e3e3" text-anchor="middle" dominant-baseline="middle">i</text>
  </g>
  <g id="e2a66742-f338-437c-81f6-cac48b132fe7">
    <rect x="910" y="107" width="70.000000" height="70.000000" rx="3" fill="#383838"/>
    <rect x="917" y="113" width="56.000000" height="56.000000" fill="#fff" fill-opacity="0.1"/>
    <text x="945" y="141" font-family="Arial" font-size="16" fill="#e3e3e3" text-anchor="middle" dominant-baseline="middle">o</text>
  </g>
  <g id="a20ab70a-18ec-48df-918c-7284105a1c83">
    <rect x="10" y="182" width="70.000000" height="70.000000" rx="3" fill="#383838"/>
    <rect x="17" y="188" width="56.000000" height="56.000000" fill="#fff" fill-opacity="0.1"/>
    <text x="45" y="216" font-family="Arial" font-size="16" fill="#e3e3e3" text-anchor="middle" dominant-baseline="middle">z</text>
  </g>
  <g id="7d222650-b6d6-4a02-a585-8d68c0175175">
    <rect x="85" y="167" width="70.000000" height="70.000000" rx="3" fill="#383838"/>
    <rect x="92" y="173" width="56.000000" height="56.000000" fill="#fff" fill-opacity="0.1"/>
    <text x="120" y="201" font-family="Arial" font-size="16" fill="#e3e3e3" text-anchor="middle" dominant-baseline="middle">x</text>
  </g>
  <g id="84aa36f2-0bad-4405-a144-f41d1316d4af">
    <rect x="160" y="160" width="70.000000" height="70.000000" rx="3" fill="#383838"/>
    <rect x="167" y="166" width="56.000000" height="56.000000" fill="#fff" fill-opacity="0.1"/>
    <text x="195" y="194" font-family="Arial" font-size="16" fill="#e3e3e3" text-anchor="middle" dominant-baseline="middle">c</text>
  </g>
  <g id="c8deedf9-9fa3-4eb2-8e7c-2077e3592a4e">
    <rect x="235" y="167" width="70.000000" height="70.000000" rx="3" fill="#383838"/>
    <rect x="242" y="173" width="56.000000" height="56.000000" fill="#fff" fill-opacity="0.1"/>
    <text x="270" y="201" font-family="Arial" font-size="16" fill="#e3e3e3" text-anchor="middle" dominant-baseline="middle">v</text>
  </g>
  <g id="48f23a29-c645-4476-86b1-ca99c19cf6ee">
    <rect x="310" y="175" width="70.000000" height="70.000000" rx="3" fill="#383838"/>
    <rect x="317" y="181" width="56.000000" height="56.000000" fill="#fff" fill-opacity="0.1"/>
    <text x="345" y="209" font-family="Arial" font-size="16" fill="#e3e3e3" text-anchor="middle" dominant-baseline="middle">b</text>
  </g>
  <g id="dfff5638-4398-4a88-97df-313e48bdf835">
    <rect x="610" y="175" width="70.000000" height="70.000000" rx="3" fill="#383838"/>
    <rect x="617" y="181" width="56.000000" height="56.000000" fill="#fff" fill-opacity="0.1"/>
    <text x="645" y="209" font-family="Arial" font-size="16" fill="#e3e3e3" text-anchor="middle" dominant-baseline="middle">k</text>
  </g>
  <g id="ecd69c44-24fc-4bcd-b3ee-3c5ccf9e0af0">
    <rect x="685" y="167" width="70.000000" height="70.000000" rx="3" fill="#383838"/>
    <rect x="692" y="173" width="56.000000" height="56.000000" fill="#fff" fill-opacity="0.1"/>
    <text x="720" y="201" font-family="Arial" font-size="16" fill="#e3e3e3" text-anchor="middle" dominant-baseline="middle">m</text>
  </g>
  <g id="f5818b1c-273c-4832-a326-7c6b732ba1b4">
    <rect x="760" y="160" width="70.000000" height="70.000000" rx="3" fill="#383838"/>
    <rect x="767" y="166" width="56.000000" height="56.000000" fill="#fff" fill-opacity="0.1"/>
    <text x="795" y="194" font-family="Arial" font-size="16" fill="#e3e3e3" text-anchor="middle" dominant-baseline="middle">,</text>
  </g>
  <g id="cc7fb58c-fe9a-4fef-a29d-bb35983d6cdb">
    <rect x="835" y="167" width="70.000000" height="70.000000" rx="3" fill="#383838"/>
    <rect x="842" y="173" width="56.000000" height="56.000000" fill="#fff" fill-opacity="0.1"/>
    <text x="870" y="201" font-family="Arial" font-size="16" fill="#e3e3e3" text-anchor="middle" dominant-baseline="middle">.</text>
  </g>
  <g id="6ea9e583-7529-46b8-887e-5de85e36c877">
    <rect x="910" y="182" width="70.000000" height="70.000000" rx="3" fill="#383838"/>
    <rect x="917" y="188" width="56.000000" height="56.000000" fill="#fff" fill-opacity="0.1"/>
    <text x="945" y="216" font-family="Arial" font-size="16" fill="#e3e3e3" text-anchor="middle" dominant-baseline="middle">&apos;</text>
  </g>
  <g id="c53cb1ac-4299-4a03-b065-4dffada3a4ca">
    <rect x="235" y="287" width="70.000000" height="70.000000" rx="3" fill="#383838"/>
    <rect x="242" y="293" width="56.000000" height="56.000000" fill="#fff" fill-opacity="0.1"/>
    <text x="270" y="321" font-family="Arial" font-size="16" fill="#e3e3e3" text-anchor="middle" dominant-baseline="middle">OSL_mcr</text>
  </g>
  <g id="d5cfa4a1-c910-4516-bd52-b50b3a5a1ab6">
    <rect x="310" y="287" width="70.000000" height="70.000000" rx="3" fill="#383838"/>
    <rect x="317" y="293" width="56.000000" height="56.000000" fill="#fff" fill-opacity="0.1"/>
    <text x="345" y="321" font-family="Arial" font-size="16" fill="#e3e3e3" text-anchor="middle" dominant-baseline="middle">spc</text>
  </g>
  <g id="a3675c74-ae8e-437f-8abd-aa0487a38624">
    <rect x="385" y="250" width="70.000000" height="105.000000" rx="3" fill="#383838"/>
    <rect x="392" y="256" width="56.000000" height="91.000000" fill="#fff" fill-opacity="0.1"/>
    <text x="420" y="301" font-family="Arial" font-size="16" fill="#e3e3e3" text-anchor="middle" dominant-baseline="middle">bspc</text>
  </g>
  <g id="d361d4c6-fa60-435f-870a-d960c9775a1e">
    <rect x="535" y="250" width="70.000000" height="105.000000" rx="3" fill="#383838"/>
    <rect x="542" y="256" width="56.000000" height="91.000000" fill="#fff" fill-opacity="0.1"/>
    <text x="570" y="301" font-family="Arial" font-size="16" fill="#e3e3e3" text-anchor="middle" dominant-baseline="middle">tab</text>
  </g>
  <g id="bb6bd0d7-4ef8-4304-a48d-ed8f27654d0a">
    <rect x="610" y="287" width="70.000000" height="70.000000" rx="3" fill="#383838"/>
    <rect x="617" y="293" width="56.000000" height="56.000000" fill="#fff" fill-opacity="0.1"/>
    <text x="645" y="321" font-family="Arial" font-size="16" fill="#e3e3e3" text-anchor="middle" dominant-baseline="middle">ent</text>
  </g>
  <g id="43dbd6b9-1c0c-4f81-a22d-842bfa03cc2e">
    <rect x="685" y="287" width="70.000000" height="70.000000" rx="3" fill="#383838"/>
    <rect x="692" y="293" width="56.000000" height="56.000000" fill="#fff" fill-opacity="0.1"/>
    <text x="720" y="321" font-family="Arial" font-size="16" fill="#e3e3e3" text-anchor="middle" dominant-baseline="middle">OSL_mcr</text>
  </g>
</svg>
